<svg width="1004" height="765" viewBox="0 0 1004 765" fill="none" xmlns="http://www.w3.org/2000/svg">
<g opacity="0.08" clip-path="url(#clip0)">
<path d="M745.884 143.964C748.443 141.121 750.801 138.105 752.943 134.937L708.11 124.453L757.114 128.104C762.503 118.186 765.812 107.273 766.838 96.0317C767.864 84.7908 766.585 73.4587 763.081 62.7289L695.016 92.4425L758.667 51.9169C753.642 41.715 746.57 32.6571 737.892 25.3075C729.213 17.9579 719.115 12.4741 708.225 9.19756C697.335 5.92105 685.886 4.9221 674.593 6.26293C663.3 7.60377 652.404 11.2556 642.584 16.9911C632.764 22.7265 624.23 30.4227 617.514 39.6001C610.798 48.7775 606.044 59.2395 603.548 70.3344C601.051 81.4293 600.866 92.9195 603.004 104.089C605.142 115.259 609.557 125.868 615.974 135.257C611.987 139.681 608.488 144.522 605.539 149.697L662.335 184.213L601.001 158.949C595.723 171.677 593.701 185.521 595.12 199.227C596.538 212.933 601.352 226.07 609.125 237.447C599.593 248.027 592.949 260.885 589.835 274.78C586.72 288.676 587.241 303.139 591.346 316.775C595.45 330.411 603.001 342.758 613.269 352.625C623.536 362.492 636.174 369.546 649.962 373.105C648.663 376.113 647.893 379.323 647.685 382.593C647.313 387.429 648.237 392.276 650.361 396.637C647.717 400.695 646.159 405.364 645.835 410.197C645.511 415.03 646.432 419.866 648.511 424.241C645.867 428.3 644.309 432.969 643.985 437.802C643.661 442.635 644.582 447.47 646.661 451.845C644.017 455.904 642.459 460.573 642.135 465.406C641.811 470.239 642.732 475.074 644.811 479.45C642.124 483.487 640.561 488.168 640.284 493.01C639.448 505.484 646.495 516.113 656.023 516.752C665.552 517.391 673.954 507.797 674.79 495.323C675.162 490.487 674.238 485.64 672.114 481.28C674.758 477.221 676.316 472.552 676.64 467.719C676.964 462.886 676.043 458.051 673.964 453.675C676.608 449.617 678.166 444.947 678.49 440.115C678.814 435.282 677.893 430.446 675.814 426.071C678.458 422.012 680.016 417.343 680.34 412.51C680.664 407.677 679.743 402.842 677.664 398.467C680.351 394.429 681.914 389.748 682.19 384.906C682.425 381.59 682.077 378.259 681.162 375.063C695.228 373.262 708.596 367.881 719.986 359.435C731.376 350.988 740.408 339.759 746.215 326.823C752.023 313.887 754.413 299.676 753.156 285.551C751.898 271.427 747.036 257.862 739.035 246.154C751.469 232.355 758.903 214.777 760.145 196.245C761.388 177.712 756.365 159.299 745.884 143.964V143.964Z" fill="#F2F2F2"/>
<path d="M836.365 509.203C836.365 521.417 750.249 563.26 647.658 563.26C545.067 563.26 464.848 521.417 464.848 509.203C464.848 496.99 545.067 519.032 647.658 519.032C750.249 519.032 836.365 496.99 836.365 509.203Z" fill="#3F3D56"/>
<path opacity="0.1" d="M836.365 509.203C836.365 521.417 750.249 563.26 647.658 563.26C545.067 563.26 464.848 521.417 464.848 509.203C464.848 496.99 545.067 519.032 647.658 519.032C750.249 519.032 836.365 496.99 836.365 509.203Z" fill="black"/>
<path d="M650.607 531.317C753.198 531.317 836.365 521.417 836.365 509.203C836.365 496.99 753.198 487.089 650.607 487.089C548.015 487.089 464.848 496.99 464.848 509.203C464.848 521.417 548.015 531.317 650.607 531.317Z" fill="#3F3D56"/>
<path opacity="0.1" d="M655 530.066C689.794 530.066 718 522.007 718 512.066C718 502.125 689.794 494.066 655 494.066C620.206 494.066 592 502.125 592 512.066C592 522.007 620.206 530.066 655 530.066Z" fill="black"/>
<path d="M668.822 392.531C671.233 388.322 672.479 383.547 672.431 378.698C672.431 366.196 664.69 356.062 655.14 356.062C645.59 356.062 637.849 366.196 637.849 378.698C637.801 383.547 639.047 388.322 641.458 392.531C639.091 396.757 637.849 401.52 637.849 406.364C637.849 411.208 639.091 415.97 641.458 420.197C639.091 424.423 637.849 429.186 637.849 434.03C637.849 438.874 639.091 443.637 641.458 447.863C639.091 452.09 637.849 456.852 637.849 461.696C637.849 466.54 639.091 471.303 641.458 475.529C639.047 479.738 637.801 484.513 637.849 489.363C637.849 501.864 645.59 511.999 655.14 511.999C664.69 511.999 672.431 501.864 672.431 489.363C672.479 484.513 671.233 479.738 668.822 475.529C671.189 471.303 672.431 466.54 672.431 461.696C672.431 456.852 671.189 452.09 668.822 447.863C671.189 443.637 672.431 438.874 672.431 434.03C672.431 429.186 671.189 424.423 668.822 420.197C671.189 415.97 672.431 411.208 672.431 406.364C672.431 401.52 671.189 396.757 668.822 392.531Z" fill="#3F3D56"/>
<path d="M655.14 373.667C664.69 373.667 672.432 363.533 672.432 351.031C672.432 338.53 664.69 328.395 655.14 328.395C645.59 328.395 637.849 338.53 637.849 351.031C637.849 363.533 645.59 373.667 655.14 373.667Z" fill="#3F3D56"/>
<path d="M655.14 346.001C664.69 346.001 672.432 335.866 672.432 323.365C672.432 310.863 664.69 300.729 655.14 300.729C645.59 300.729 637.849 310.863 637.849 323.365C637.849 335.866 645.59 346.001 655.14 346.001Z" fill="#3F3D56"/>
<path d="M719.87 134.036C722.233 131.028 724.384 127.861 726.31 124.557L680.875 117.095L730.014 117.46C734.728 107.204 737.3 96.0938 737.572 84.8094C737.844 73.525 735.81 62.3038 731.596 51.8323L665.67 86.0312L726.469 41.3397C720.773 31.4968 713.111 22.9322 703.961 16.1794C694.81 9.42665 684.368 4.63045 673.283 2.08956C662.198 -0.451317 650.709 -0.682441 639.531 1.41059C628.353 3.50363 617.725 7.87598 608.311 14.2553C598.896 20.6346 590.896 28.8841 584.809 38.4901C578.722 48.096 574.678 58.8525 572.929 70.0895C571.18 81.3265 571.764 92.8033 574.644 103.805C577.524 114.806 582.638 125.097 589.669 134.036C585.986 138.717 582.819 143.781 580.223 149.141L639.2 179.781L576.314 158.675C571.898 171.728 570.807 185.676 573.139 199.257C575.471 212.838 581.152 225.623 589.669 236.455C580.059 248.672 574.081 263.347 572.419 278.802C570.756 294.256 573.476 309.866 580.267 323.848C587.058 337.83 597.646 349.618 610.821 357.866C623.996 366.113 639.226 370.487 654.77 370.487C670.313 370.487 685.543 366.113 698.718 357.866C711.893 349.618 722.481 337.83 729.272 323.848C736.063 309.866 738.783 294.256 737.12 278.802C735.458 263.347 729.48 248.672 719.87 236.455C731.353 221.855 737.596 203.82 737.596 185.246C737.596 166.671 731.353 148.636 719.87 134.036Z" fill="#364F6B"/>
<path opacity="0.1" d="M571.943 185.246C571.915 203.825 578.16 221.869 589.669 236.455C580.059 248.672 574.081 263.347 572.419 278.802C570.756 294.256 573.476 309.866 580.267 323.848C587.058 337.83 597.646 349.618 610.821 357.866C623.996 366.113 639.226 370.487 654.77 370.487C670.313 370.487 685.543 366.113 698.718 357.866C711.893 349.618 722.481 337.83 729.272 323.848C736.063 309.866 738.783 294.256 737.12 278.802C735.458 263.347 729.48 248.672 719.87 236.455C730.972 222.362 571.943 175.949 571.943 185.246Z" fill="black"/>
<path d="M950.083 266.696L968.739 250.06C931.704 243.17 894.535 275.75 884.836 323.182C884.514 323.245 884.194 323.324 883.879 323.42L862.843 254.425C861.294 262.631 860.606 270.976 860.79 279.325L844.385 247.467C837.755 283.104 853.541 316.218 880.042 324.154C877.829 324.157 875.619 323.998 873.429 323.679C873.328 323.664 873.259 323.654 873.259 323.654C873.089 325.413 873.14 327.185 873.409 328.931C873.524 329.909 873.942 330.827 874.604 331.556C875.414 332.282 877.695 333.285 880.685 334.319C880.915 334.399 881.149 334.479 881.387 334.558C883.291 335.197 885.442 335.842 887.661 336.434C890.435 337.175 893.315 337.836 895.956 338.305C896.242 338.356 896.506 338.388 896.754 338.408C896.834 338.415 896.904 338.414 896.98 338.417C897.141 338.424 897.298 338.429 897.442 338.423C897.521 338.42 897.593 338.411 897.667 338.404C897.788 338.394 897.909 338.377 898.028 338.354C898.094 338.34 898.158 338.324 898.22 338.307C898.321 338.279 898.421 338.244 898.517 338.202C898.568 338.18 898.62 338.158 898.667 338.133C898.756 338.085 898.841 338.029 898.921 337.966C898.953 337.94 898.99 337.918 899.019 337.89C899.111 337.807 899.193 337.713 899.263 337.611C899.27 337.601 899.279 337.593 899.286 337.583C899.364 337.462 899.429 337.332 899.477 337.196C899.48 337.187 899.481 337.176 899.484 337.167C899.529 337.036 899.562 336.9 899.583 336.763C899.585 336.754 899.588 336.746 899.59 336.736L899.586 336.741C900.068 333.561 895.612 326.83 895.555 324.925C895.5 323.103 891.03 322.613 887.378 322.86L956.023 267.447C954.059 267.082 952.076 266.832 950.083 266.696Z" fill="#F2F2F2"/>
<path d="M1004 333.118C1004 341.399 945.61 369.771 876.048 369.771C806.486 369.771 752.094 341.399 752.094 333.118C752.094 324.837 806.486 339.782 876.048 339.782C945.61 339.782 1004 324.837 1004 333.118Z" fill="#3F3D56"/>
<path opacity="0.1" d="M1004 333.118C1004 341.399 945.61 369.771 876.048 369.771C806.486 369.771 752.094 341.399 752.094 333.118C752.094 324.837 806.486 339.782 876.048 339.782C945.61 339.782 1004 324.837 1004 333.118Z" fill="black"/>
<path d="M878.047 348.112C947.609 348.112 1004 341.399 1004 333.118C1004 324.837 947.609 318.124 878.047 318.124C808.485 318.124 752.094 324.837 752.094 333.118C752.094 341.399 808.485 348.112 878.047 348.112Z" fill="#3F3D56"/>
<path opacity="0.1" d="M878 342.066C892.912 342.066 905 338.036 905 333.066C905 328.095 892.912 324.066 878 324.066C863.088 324.066 851 328.095 851 333.066C851 338.036 863.088 342.066 878 342.066Z" fill="black"/>
<path d="M821.859 258.47C821.859 296.682 845.832 327.602 875.457 327.602L821.859 258.47Z" fill="#3F3D56"/>
<path d="M875.457 327.602C875.457 288.961 902.208 257.693 935.268 257.693L875.457 327.602Z" fill="#364F6B"/>
<path d="M841.279 261.934C841.279 298.231 856.565 327.602 875.457 327.602L841.279 261.934Z" fill="#364F6B"/>
<path d="M875.457 327.602C875.457 278.227 906.378 238.274 944.59 238.274L875.457 327.602Z" fill="#3F3D56"/>
<path d="M864.181 328.09C864.181 328.09 871.782 327.856 874.073 326.224C876.364 324.593 885.765 322.645 886.334 325.262C886.902 327.878 897.756 338.273 889.175 338.342C880.593 338.411 869.235 337.005 866.949 335.613C864.663 334.22 864.181 328.09 864.181 328.09Z" fill="#A8A8A8"/>
<path opacity="0.2" d="M889.328 337.431C880.747 337.501 869.389 336.095 867.102 334.702C865.361 333.641 864.667 329.836 864.435 328.08C864.274 328.087 864.181 328.09 864.181 328.09C864.181 328.09 864.663 334.22 866.949 335.613C869.235 337.005 880.593 338.411 889.175 338.342C891.652 338.322 892.508 337.441 892.461 336.136C892.117 336.924 891.172 337.417 889.328 337.431Z" fill="black"/>
<path d="M205.741 228.15L215.381 243.421C212.154 247.739 209.863 252.431 211.332 255.535C214.954 263.184 223.274 273.072 227.711 278.345C232.149 283.619 232.768 297.735 262.874 296.047C292.98 294.359 305.159 280.733 305.159 280.733C305.159 280.733 307.827 305.451 320.626 314.297C319.541 315.795 318.085 316.986 316.402 317.751C302.877 324.065 288.116 374.497 277.886 402.201C266.724 432.424 283.687 427.158 283.687 427.158C289.368 427.252 294.589 427.553 299.38 428.007C304.953 442.765 313.793 474.318 303.426 506.816C296.176 529.545 297.701 553.5 300.942 571.542L294.173 578.781C286.629 581.189 284.39 585.888 284.39 585.888L267.021 610.073L269.9 612.155L280.31 597.765C280.31 597.765 282.581 599.795 285.7 606.178C288.819 612.561 279.948 637.478 279.791 639.298C279.635 641.119 287.694 654.042 298.964 658.07C299.734 658.361 300.557 658.485 301.379 658.435L300.347 670.417L306.469 670.333L308.35 648.483C308.35 648.483 313.073 678.85 314.025 681.99C314.978 685.129 324.793 684.751 335.059 686.246C345.325 687.741 355.526 675.779 345.072 669.376C334.617 662.973 333.307 642.683 333.307 642.683C338.255 627.823 327.077 608.517 327.077 608.517L325.798 594.956C325.555 595.505 325.191 595.993 324.734 596.384C324.277 596.775 323.739 597.058 323.158 597.214L324.686 579.469C336.353 566.049 351.602 548.137 359.498 537.324C373.361 518.34 372.617 512.773 372.617 512.773L386.829 449.751C391.549 450.109 396.292 450.02 400.995 449.487C410.614 448.036 407.025 416.441 401.463 390.965C402.922 384.931 405.23 376.625 408.863 365.205C410.608 359.707 411.758 354.037 412.292 348.294C414.49 325.042 406.458 305.599 402.967 298.42L404.175 295.372C404.175 295.372 415.282 283.242 406.589 262.716C407.087 260.546 407.431 258.343 407.618 256.125C408.398 246.317 406.228 236.501 401.388 227.936C401.33 227.836 401.272 227.735 401.211 227.646L401.148 227.547L401.131 227.546C401.051 227.431 400.964 227.321 400.871 227.217C397.34 223.622 379.331 216.814 375.664 215.452C375.462 215.326 375.236 215.243 375.001 215.207C373.651 215.091 375.071 209.164 376.597 203.924C378.494 202.45 380.176 200.717 381.592 198.776C389.148 195.695 395.809 190.765 400.963 184.44C406.118 178.114 409.601 170.595 411.093 162.573C412.585 154.551 412.038 146.283 409.503 138.527C406.968 130.771 402.525 123.777 396.582 118.185C398.678 115.258 400.133 111.922 400.852 108.395C401.571 104.867 401.538 101.228 400.755 97.7141C399.972 94.2004 398.456 90.8914 396.307 88.0031C394.159 85.1149 391.425 82.7124 388.284 80.9525C393.204 85.0301 396.421 90.8007 397.302 97.1298C398.183 103.459 396.665 109.889 393.045 115.155C392.499 114.731 391.944 114.317 391.381 113.915C392.735 110.222 393.22 106.267 392.798 102.357C392.376 98.4466 391.058 94.6862 388.947 91.3679C386.836 88.0495 383.988 85.2626 380.625 83.2236C377.262 81.1846 373.474 79.9484 369.555 79.611C365.636 79.2737 361.693 79.8442 358.031 81.2784C354.368 82.7125 351.086 84.9717 348.439 87.8803C345.791 90.789 343.85 94.2688 342.766 98.0494C341.682 101.83 341.484 105.81 342.187 109.679C334.656 113.273 328.173 118.741 323.361 125.558C318.549 132.376 315.569 140.316 314.706 148.616C313.844 156.916 315.127 165.299 318.434 172.961C321.741 180.623 326.96 187.307 333.592 192.372C328.718 194.644 323.373 195.726 317.999 195.528C312.625 195.331 307.374 193.86 302.68 191.236C307.594 195.302 313.553 197.902 319.876 198.739C326.199 199.577 332.63 198.617 338.433 195.971C340.605 199.946 343.789 203.277 347.662 205.625C347.252 206.789 346.701 207.899 346.022 208.93L344.465 207.687L337.717 215.054L320.304 218.447C320.304 218.447 309.17 219.934 296.489 232.294C283.807 244.654 262.492 250.767 262.492 250.767L245.759 246.27C245.759 246.27 226.514 235.441 226.723 233.013C226.756 232.627 226.293 232.744 225.512 233.239L216.099 214.367C216.099 214.367 198.462 170.659 187.151 181.303C175.84 191.946 205.741 228.15 205.741 228.15ZM329.99 517.857L330.425 512.81C336.131 504.75 339.333 484.873 341.12 466.449L338.524 511.061C335.289 512.788 332.397 515.091 329.99 517.857ZM306.702 612.233L306.609 618.984C304.765 622.286 303.38 625.824 302.492 629.501C301.96 626.276 304.185 619.027 306.702 612.233Z" fill="#F2F2F2"/>
<path d="M616.173 674.476C616.173 694.732 473.348 764.131 303.196 764.131C133.045 764.131 0 694.732 0 674.476C0 654.22 133.045 690.777 303.196 690.777C473.348 690.777 616.173 654.22 616.173 674.476Z" fill="#3F3D56"/>
<path opacity="0.1" d="M616.173 674.476C616.173 694.732 473.348 764.131 303.196 764.131C133.045 764.131 0 694.732 0 674.476C0 654.22 133.045 690.777 303.196 690.777C473.348 690.777 616.173 654.22 616.173 674.476Z" fill="black"/>
<path d="M308.087 711.153C478.238 711.153 616.173 694.732 616.173 674.476C616.173 654.22 478.238 637.799 308.087 637.799C137.935 637.799 0 654.22 0 674.476C0 694.732 137.935 711.153 308.087 711.153Z" fill="#3F3D56"/>
<path opacity="0.1" d="M310 690.065C366.333 690.065 412 680.216 412 668.065C412 655.915 366.333 646.065 310 646.065C253.667 646.065 208 655.915 208 668.065C208 680.216 253.667 690.065 310 690.065Z" fill="black"/>
<path d="M299.616 190.116C303.882 186.874 307.32 182.668 309.648 177.842C311.976 173.016 313.129 167.707 313.011 162.35C312.894 156.993 311.51 151.74 308.973 147.021C306.436 142.301 302.817 138.249 298.413 135.197C302.712 137.14 306.558 139.957 309.706 143.469C312.855 146.981 315.237 151.11 316.701 155.594C318.164 160.078 318.677 164.818 318.207 169.511C317.737 174.204 316.294 178.748 313.97 182.852C311.646 186.957 308.492 190.532 304.709 193.349C300.926 196.167 296.598 198.165 292 199.217C287.402 200.268 282.635 200.35 278.003 199.456C273.372 198.563 268.978 196.714 265.101 194.028C270.673 196.546 276.821 197.512 282.897 196.823C288.972 196.135 294.749 193.818 299.616 190.116Z" fill="#2F2E41"/>
<path d="M360.838 221.759H366.32C370.372 227.534 373.124 234.119 374.386 241.06C375.648 248.001 375.39 255.133 373.631 261.965C367.539 285.114 372.412 289.379 372.412 289.379C372.412 289.379 394.343 320.447 385.814 358.217C377.286 395.986 379.723 400.251 379.723 400.251L364.493 369.791L355.964 289.379L360.838 221.759Z" fill="#364F6B"/>
<path opacity="0.1" d="M360.838 221.79H366.32C370.372 227.565 373.124 234.15 374.386 241.091C375.648 248.032 375.39 255.165 373.631 261.996C367.539 285.146 372.412 289.41 372.412 289.41C372.412 289.41 394.343 320.478 385.814 358.248C377.286 396.018 379.723 400.282 379.723 400.282L364.493 369.823L355.964 289.41L360.838 221.79Z" fill="black"/>
<path d="M322.154 200.133C349.07 200.133 370.889 178.314 370.889 151.398C370.889 124.482 349.07 102.663 322.154 102.663C295.239 102.663 273.419 124.482 273.419 151.398C273.419 178.314 295.239 200.133 322.154 200.133Z" fill="#2F2E41"/>
<path d="M341.648 192.213C341.648 192.213 336.775 211.707 339.212 211.707C341.648 211.707 350.177 222.064 350.177 222.064L355.66 242.167L351.395 256.787L336.775 253.741L318.499 233.638L313.017 228.155L308.143 210.489C308.143 210.489 314.235 203.179 309.971 197.087C305.706 190.995 341.648 192.213 341.648 192.213Z" fill="#FBBEBE"/>
<path opacity="0.1" d="M341.648 192.213C341.648 192.213 336.775 211.707 339.212 211.707C341.648 211.707 350.177 222.064 350.177 222.064L355.66 242.167L351.395 256.787L336.775 253.741L318.499 233.638L313.017 228.155L308.143 210.489C308.143 210.489 314.235 203.179 309.971 197.087C305.706 190.995 341.648 192.213 341.648 192.213Z" fill="black"/>
<path d="M194.225 246.431L180.823 224.5C180.823 224.5 166.356 192.491 156 204.066C145.644 215.64 171.685 239.121 171.685 239.121L185.087 256.787L194.225 246.431Z" fill="#FBBEBE"/>
<path d="M372.108 437.107L362.361 508.381C362.361 508.381 363.579 513.864 351.395 533.967C339.212 554.07 306.315 597.932 306.315 597.932L296.569 579.656C296.569 579.656 308.143 521.784 328.246 509.6L325.809 421.877L372.108 437.107Z" fill="#FBBEBE"/>
<path opacity="0.1" d="M372.108 437.107L362.361 508.381C362.361 508.381 363.579 513.864 351.395 533.967C339.212 554.07 306.315 597.932 306.315 597.932L296.569 579.656C296.569 579.656 308.143 521.784 328.246 509.6L325.809 421.877L372.108 437.107Z" fill="black"/>
<path d="M296.569 572.346L309.971 597.932C309.971 597.932 299.005 629 303.27 632.046C307.534 635.092 313.017 662.506 301.442 659.46C289.867 656.414 280.73 644.23 280.73 642.402C280.73 640.575 287.431 614.989 283.776 608.897C280.12 602.805 277.684 600.978 277.684 600.978L268.546 616.207L265.5 614.38L280.73 588.794C280.73 588.794 282.557 583.921 289.867 580.875L296.569 572.346Z" fill="#2F2E41"/>
<path opacity="0.1" d="M296.569 572.346L309.971 597.932C309.971 597.932 299.005 629 303.27 632.046C307.534 635.092 313.017 662.506 301.442 659.46C289.867 656.414 280.73 644.23 280.73 642.402C280.73 640.575 287.431 614.989 283.776 608.897C280.12 602.805 277.684 600.978 277.684 600.978L268.546 616.207L265.5 614.38L280.73 588.794C280.73 588.794 282.557 583.921 289.867 580.875L296.569 572.346Z" fill="black"/>
<path d="M325.952 426.994C325.952 426.994 330.683 494.37 320.327 512.037V599.759L306.316 601.587C306.316 601.587 282.557 554.07 292.913 508.381C303.27 462.692 277.684 421.877 277.684 421.877L325.952 426.994Z" fill="#FBBEBE"/>
<path d="M322.459 207.139C336.59 207.139 348.045 195.683 348.045 181.553C348.045 167.422 336.59 155.967 322.459 155.967C308.328 155.967 296.873 167.422 296.873 181.553C296.873 195.683 308.328 207.139 322.459 207.139Z" fill="#FBBEBE"/>
<path d="M348.349 248.868L322.764 216.581L308.143 206.834L302.051 214.753L284.994 219.627C284.994 219.627 274.029 222.064 262.454 235.466C250.88 248.868 230.167 256.787 230.167 256.787L213.11 253.741C213.11 253.741 193.007 244.604 193.007 242.167C193.007 239.73 175.34 258.615 179.605 265.925C183.869 273.235 193.007 282.373 197.88 287.247C202.754 292.12 204.581 306.131 234.432 301.867C264.282 297.603 275.247 282.982 275.247 282.982C275.247 282.982 280.73 311.005 296.569 316.488C312.407 321.97 364.188 325.625 364.188 325.625L375.154 289.074C375.154 289.074 387.337 273.235 370.889 250.086C370.889 250.086 370.574 237.14 368.805 228.525C368.118 225.174 367.21 222.478 366.016 221.454C361.752 217.799 339.212 211.707 339.212 211.707C339.212 211.707 342.867 223.891 344.694 224.5C346.522 225.11 350.786 245.822 348.349 248.868Z" fill="#364F6B"/>
<path d="M266.414 430.71C297.092 428.578 314.954 433.604 322.922 437.435C324.403 438.106 325.798 438.953 327.077 439.957C327.661 440.451 327.942 440.835 327.942 441.066C327.942 442.894 369.976 446.549 385.205 442.894C400.435 439.239 374.849 360.654 368.148 353.953C361.447 347.252 365.059 322.726 365.059 322.726C365.059 322.726 351.7 319.838 348.045 321.056C344.39 322.275 325.505 319.229 318.804 315.574C312.103 311.919 303.574 314.355 298.091 313.137C295.643 312.595 294.406 313.509 293.791 314.69C292.833 316.463 291.387 317.924 289.624 318.9C276.691 326.35 266.31 377.863 258.494 406.343C249.966 437.411 266.414 430.71 266.414 430.71Z" fill="#2F2E41"/>
<path d="M322.764 594.277L325.2 607.679C325.2 607.679 337.993 625.954 334.338 641.184C334.338 641.184 337.384 661.287 348.349 666.77C359.315 672.253 350.177 685.045 339.821 684.436C329.465 683.827 319.718 685.045 318.499 682C317.281 678.954 309.971 649.103 309.971 649.103V671.034L303.879 671.643V644.23C303.879 644.23 299.005 635.092 305.706 619.862L304.015 596.485C304.015 596.485 320.936 600.368 322.764 594.277Z" fill="#2F2E41"/>
<path d="M322.154 128.249C336.285 128.249 347.74 116.794 347.74 102.663C347.74 88.5323 336.285 77.0771 322.154 77.0771C308.024 77.0771 296.569 88.5323 296.569 102.663C296.569 116.794 308.024 128.249 322.154 128.249Z" fill="#2F2E41"/>
<path d="M341.836 118.21C345.052 115.765 347.644 112.595 349.399 108.956C351.154 105.318 352.023 101.316 351.934 97.2779C351.846 93.2395 350.803 89.2795 348.89 85.7216C346.977 82.1638 344.249 79.1094 340.93 76.8082C344.17 78.2728 347.069 80.3966 349.443 83.0441C351.816 85.6916 353.612 88.8047 354.715 92.1849C355.819 95.5651 356.205 99.1381 355.851 102.676C355.496 106.214 354.409 109.639 352.657 112.734C350.905 115.828 348.527 118.523 345.675 120.647C342.824 122.771 339.561 124.277 336.094 125.07C332.628 125.862 329.035 125.924 325.543 125.251C322.052 124.577 318.739 123.183 315.817 121.158C320.017 123.057 324.652 123.785 329.232 123.266C333.812 122.747 338.167 121 341.836 118.21Z" fill="#2F2E41"/>
<path d="M322.764 181.857C337.231 181.857 348.959 172.584 348.959 161.145C348.959 149.706 337.231 140.433 322.764 140.433C308.296 140.433 296.569 149.706 296.569 161.145C296.569 172.584 308.296 181.857 322.764 181.857Z" fill="#2F2E41"/>
<path opacity="0.1" d="M322.922 437.436C324.403 438.106 325.798 438.953 327.077 439.957C327.399 434.201 329.264 399.386 327.028 399.946L322.922 437.436Z" fill="black"/>
<path d="M108 232.066C155.496 232.066 194 193.562 194 146.066C194 98.5691 155.496 60.0656 108 60.0656C60.5035 60.0656 22 98.5691 22 146.066C22 193.562 60.5035 232.066 108 232.066Z" fill="#FF6584"/>
<path d="M165.349 217.013C166.047 215.51 163.77 212.972 160.263 211.344C156.757 209.717 153.348 209.615 152.651 211.118C151.953 212.621 154.23 215.159 157.737 216.787C161.243 218.414 164.652 218.516 165.349 217.013Z" fill="#FBBEBE"/>
</g>
<defs>
<clipPath id="clip0">
<rect width="1004" height="764.131" fill="white"/>
</clipPath>
</defs>
</svg>
